<mxfile host="app.diagrams.net" modified="2023-05-09T03:08:04.906Z" agent="Mozilla/5.0 (Windows NT 10.0; Win64; x64) AppleWebKit/537.36 (KHTML, like Gecko) Chrome/112.0.0.0 Safari/537.36" etag="m0wS5OQXYagdR3jXUhq4" version="21.2.2" type="device">
  <diagram id="R2lEEEUBdFMjLlhIrx00" name="Page-1">
    <mxGraphModel dx="2390" dy="1178" grid="0" gridSize="10" guides="1" tooltips="1" connect="1" arrows="1" fold="1" page="1" pageScale="1" pageWidth="10000" pageHeight="5000" math="0" shadow="0" extFonts="Permanent Marker^https://fonts.googleapis.com/css?family=Permanent+Marker">
      <root>
        <mxCell id="0" />
        <mxCell id="1" parent="0" />
        <mxCell id="uqeAqKsrdyoIgIY8dId6-229" style="edgeStyle=orthogonalEdgeStyle;rounded=0;orthogonalLoop=1;jettySize=auto;html=1;exitX=0.5;exitY=0;exitDx=0;exitDy=0;entryX=0;entryY=0.5;entryDx=0;entryDy=0;fontSize=16;" parent="1" source="uqeAqKsrdyoIgIY8dId6-232" target="uqeAqKsrdyoIgIY8dId6-257" edge="1">
          <mxGeometry relative="1" as="geometry" />
        </mxCell>
        <mxCell id="uqeAqKsrdyoIgIY8dId6-230" style="edgeStyle=orthogonalEdgeStyle;rounded=0;orthogonalLoop=1;jettySize=auto;html=1;exitX=0.25;exitY=0;exitDx=0;exitDy=0;entryX=0;entryY=0.5;entryDx=0;entryDy=0;fontSize=16;" parent="1" source="uqeAqKsrdyoIgIY8dId6-232" target="uqeAqKsrdyoIgIY8dId6-267" edge="1">
          <mxGeometry relative="1" as="geometry" />
        </mxCell>
        <mxCell id="uqeAqKsrdyoIgIY8dId6-231" style="edgeStyle=orthogonalEdgeStyle;rounded=0;orthogonalLoop=1;jettySize=auto;html=1;exitX=0.75;exitY=0;exitDx=0;exitDy=0;entryX=0;entryY=0.5;entryDx=0;entryDy=0;fontSize=16;" parent="1" source="uqeAqKsrdyoIgIY8dId6-232" target="uqeAqKsrdyoIgIY8dId6-280" edge="1">
          <mxGeometry relative="1" as="geometry" />
        </mxCell>
        <mxCell id="uqy_jj-NDFEcj7-FZCHa-26" style="edgeStyle=orthogonalEdgeStyle;rounded=0;orthogonalLoop=1;jettySize=auto;html=1;exitX=0;exitY=0;exitDx=0;exitDy=0;entryX=1;entryY=0.5;entryDx=0;entryDy=0;" parent="1" source="uqeAqKsrdyoIgIY8dId6-232" target="uqy_jj-NDFEcj7-FZCHa-20" edge="1">
          <mxGeometry relative="1" as="geometry" />
        </mxCell>
        <mxCell id="uqeAqKsrdyoIgIY8dId6-232" value="회원" style="rounded=0;whiteSpace=wrap;html=1;fontSize=16;" parent="1" vertex="1">
          <mxGeometry x="1774.5" y="1350" width="120" height="60" as="geometry" />
        </mxCell>
        <mxCell id="uqeAqKsrdyoIgIY8dId6-233" style="edgeStyle=orthogonalEdgeStyle;rounded=0;orthogonalLoop=1;jettySize=auto;html=1;exitX=0.5;exitY=0;exitDx=0;exitDy=0;entryX=1;entryY=0.5;entryDx=0;entryDy=0;fontSize=16;" parent="1" source="uqeAqKsrdyoIgIY8dId6-236" target="uqeAqKsrdyoIgIY8dId6-257" edge="1">
          <mxGeometry relative="1" as="geometry" />
        </mxCell>
        <mxCell id="uqeAqKsrdyoIgIY8dId6-234" style="edgeStyle=orthogonalEdgeStyle;rounded=0;orthogonalLoop=1;jettySize=auto;html=1;exitX=0.75;exitY=0;exitDx=0;exitDy=0;entryX=1;entryY=0.5;entryDx=0;entryDy=0;fontSize=16;" parent="1" source="uqeAqKsrdyoIgIY8dId6-236" target="uqeAqKsrdyoIgIY8dId6-267" edge="1">
          <mxGeometry relative="1" as="geometry" />
        </mxCell>
        <mxCell id="uqeAqKsrdyoIgIY8dId6-235" style="edgeStyle=orthogonalEdgeStyle;rounded=0;orthogonalLoop=1;jettySize=auto;html=1;exitX=0.25;exitY=0;exitDx=0;exitDy=0;entryX=1;entryY=0.5;entryDx=0;entryDy=0;fontSize=16;" parent="1" source="uqeAqKsrdyoIgIY8dId6-236" target="uqeAqKsrdyoIgIY8dId6-280" edge="1">
          <mxGeometry relative="1" as="geometry" />
        </mxCell>
        <mxCell id="uqeAqKsrdyoIgIY8dId6-236" value="상품" style="rounded=0;whiteSpace=wrap;html=1;fontSize=16;" parent="1" vertex="1">
          <mxGeometry x="2812" y="1390" width="120" height="60" as="geometry" />
        </mxCell>
        <mxCell id="uqeAqKsrdyoIgIY8dId6-237" value="아이디" style="ellipse;whiteSpace=wrap;html=1;fontSize=16;fontStyle=1;fontColor=#f70202;" parent="1" vertex="1">
          <mxGeometry x="1360" y="1460" width="110" height="50" as="geometry" />
        </mxCell>
        <mxCell id="uqeAqKsrdyoIgIY8dId6-238" value="비밀번호" style="ellipse;whiteSpace=wrap;html=1;fontSize=16;" parent="1" vertex="1">
          <mxGeometry x="1420" y="1510" width="110" height="50" as="geometry" />
        </mxCell>
        <mxCell id="uqeAqKsrdyoIgIY8dId6-239" value="회원명" style="ellipse;whiteSpace=wrap;html=1;fontSize=16;" parent="1" vertex="1">
          <mxGeometry x="1530" y="1540" width="110" height="50" as="geometry" />
        </mxCell>
        <mxCell id="uqeAqKsrdyoIgIY8dId6-240" value="연락처" style="ellipse;whiteSpace=wrap;html=1;fontSize=16;" parent="1" vertex="1">
          <mxGeometry x="1650" y="1550" width="110" height="50" as="geometry" />
        </mxCell>
        <mxCell id="uqeAqKsrdyoIgIY8dId6-241" value="주소" style="ellipse;whiteSpace=wrap;html=1;fontSize=16;" parent="1" vertex="1">
          <mxGeometry x="1770" y="1550" width="110" height="50" as="geometry" />
        </mxCell>
        <mxCell id="uqeAqKsrdyoIgIY8dId6-242" value="" style="endArrow=classic;html=1;rounded=0;exitX=0.5;exitY=1;exitDx=0;exitDy=0;entryX=0.5;entryY=0;entryDx=0;entryDy=0;" parent="1" source="uqeAqKsrdyoIgIY8dId6-232" target="uqeAqKsrdyoIgIY8dId6-237" edge="1">
          <mxGeometry width="50" height="50" relative="1" as="geometry">
            <mxPoint x="1813" y="1440" as="sourcePoint" />
            <mxPoint x="1238" y="1420" as="targetPoint" />
          </mxGeometry>
        </mxCell>
        <mxCell id="uqeAqKsrdyoIgIY8dId6-243" value="" style="endArrow=classic;html=1;rounded=0;exitX=0.5;exitY=1;exitDx=0;exitDy=0;entryX=0.5;entryY=0;entryDx=0;entryDy=0;fontSize=16;" parent="1" source="uqeAqKsrdyoIgIY8dId6-232" target="uqeAqKsrdyoIgIY8dId6-238" edge="1">
          <mxGeometry width="50" height="50" relative="1" as="geometry">
            <mxPoint x="1844.5" y="1420" as="sourcePoint" />
            <mxPoint x="1605.5" y="1560" as="targetPoint" />
          </mxGeometry>
        </mxCell>
        <mxCell id="uqeAqKsrdyoIgIY8dId6-244" value="" style="endArrow=classic;html=1;rounded=0;exitX=0.5;exitY=1;exitDx=0;exitDy=0;entryX=0.5;entryY=0;entryDx=0;entryDy=0;fontSize=16;" parent="1" source="uqeAqKsrdyoIgIY8dId6-232" target="uqeAqKsrdyoIgIY8dId6-239" edge="1">
          <mxGeometry width="50" height="50" relative="1" as="geometry">
            <mxPoint x="1854.5" y="1430" as="sourcePoint" />
            <mxPoint x="1615.5" y="1570" as="targetPoint" />
          </mxGeometry>
        </mxCell>
        <mxCell id="uqeAqKsrdyoIgIY8dId6-245" value="" style="endArrow=classic;html=1;rounded=0;exitX=0.5;exitY=1;exitDx=0;exitDy=0;entryX=0.5;entryY=0;entryDx=0;entryDy=0;fontSize=16;" parent="1" source="uqeAqKsrdyoIgIY8dId6-232" target="uqeAqKsrdyoIgIY8dId6-240" edge="1">
          <mxGeometry width="50" height="50" relative="1" as="geometry">
            <mxPoint x="1864.5" y="1440" as="sourcePoint" />
            <mxPoint x="1625.5" y="1580" as="targetPoint" />
          </mxGeometry>
        </mxCell>
        <mxCell id="uqeAqKsrdyoIgIY8dId6-246" value="" style="endArrow=classic;html=1;rounded=0;entryX=0.5;entryY=0;entryDx=0;entryDy=0;fontSize=16;" parent="1" target="uqeAqKsrdyoIgIY8dId6-241" edge="1">
          <mxGeometry width="50" height="50" relative="1" as="geometry">
            <mxPoint x="1830.5" y="1410" as="sourcePoint" />
            <mxPoint x="1635.5" y="1590" as="targetPoint" />
          </mxGeometry>
        </mxCell>
        <mxCell id="uqeAqKsrdyoIgIY8dId6-247" value="상품코드" style="ellipse;whiteSpace=wrap;html=1;fontSize=16;fontStyle=1;fontColor=#f70202;" parent="1" vertex="1">
          <mxGeometry x="2480" y="1480" width="110" height="50" as="geometry" />
        </mxCell>
        <mxCell id="uqeAqKsrdyoIgIY8dId6-248" value="상품명" style="ellipse;whiteSpace=wrap;html=1;fontSize=16;" parent="1" vertex="1">
          <mxGeometry x="2480" y="1540" width="110" height="50" as="geometry" />
        </mxCell>
        <mxCell id="uqeAqKsrdyoIgIY8dId6-249" value="상품규격" style="ellipse;whiteSpace=wrap;html=1;fontSize=16;" parent="1" vertex="1">
          <mxGeometry x="2570.5" y="1580" width="110" height="50" as="geometry" />
        </mxCell>
        <mxCell id="uqeAqKsrdyoIgIY8dId6-250" value="색상" style="ellipse;whiteSpace=wrap;html=1;fontSize=16;" parent="1" vertex="1">
          <mxGeometry x="2673.5" y="1610" width="110" height="50" as="geometry" />
        </mxCell>
        <mxCell id="uqeAqKsrdyoIgIY8dId6-251" value="상품설명" style="ellipse;whiteSpace=wrap;html=1;fontSize=16;" parent="1" vertex="1">
          <mxGeometry x="2790" y="1620" width="110" height="50" as="geometry" />
        </mxCell>
        <mxCell id="uqeAqKsrdyoIgIY8dId6-252" value="" style="endArrow=classic;html=1;rounded=0;exitX=0.5;exitY=1;exitDx=0;exitDy=0;entryX=0.5;entryY=0;entryDx=0;entryDy=0;fontSize=16;" parent="1" source="uqeAqKsrdyoIgIY8dId6-236" target="uqeAqKsrdyoIgIY8dId6-247" edge="1">
          <mxGeometry width="50" height="50" relative="1" as="geometry">
            <mxPoint x="2176" y="1430" as="sourcePoint" />
            <mxPoint x="1937" y="1570" as="targetPoint" />
          </mxGeometry>
        </mxCell>
        <mxCell id="uqeAqKsrdyoIgIY8dId6-253" value="" style="endArrow=classic;html=1;rounded=0;entryX=0.5;entryY=0;entryDx=0;entryDy=0;fontSize=16;" parent="1" target="uqeAqKsrdyoIgIY8dId6-248" edge="1">
          <mxGeometry width="50" height="50" relative="1" as="geometry">
            <mxPoint x="2872" y="1450" as="sourcePoint" />
            <mxPoint x="2647" y="1570" as="targetPoint" />
          </mxGeometry>
        </mxCell>
        <mxCell id="uqeAqKsrdyoIgIY8dId6-254" value="" style="endArrow=classic;html=1;rounded=0;entryX=0.416;entryY=-0.059;entryDx=0;entryDy=0;entryPerimeter=0;exitX=0.5;exitY=1;exitDx=0;exitDy=0;fontSize=16;" parent="1" source="uqeAqKsrdyoIgIY8dId6-236" target="uqeAqKsrdyoIgIY8dId6-249" edge="1">
          <mxGeometry width="50" height="50" relative="1" as="geometry">
            <mxPoint x="2872" y="1460" as="sourcePoint" />
            <mxPoint x="2667" y="1590" as="targetPoint" />
          </mxGeometry>
        </mxCell>
        <mxCell id="uqeAqKsrdyoIgIY8dId6-255" value="" style="endArrow=classic;html=1;rounded=0;entryX=0.5;entryY=0;entryDx=0;entryDy=0;fontSize=16;" parent="1" target="uqeAqKsrdyoIgIY8dId6-250" edge="1">
          <mxGeometry width="50" height="50" relative="1" as="geometry">
            <mxPoint x="2872" y="1450" as="sourcePoint" />
            <mxPoint x="2677" y="1600" as="targetPoint" />
          </mxGeometry>
        </mxCell>
        <mxCell id="uqeAqKsrdyoIgIY8dId6-256" value="" style="endArrow=classic;html=1;rounded=0;entryX=0.412;entryY=-0.029;entryDx=0;entryDy=0;fontSize=16;entryPerimeter=0;" parent="1" target="uqeAqKsrdyoIgIY8dId6-251" edge="1">
          <mxGeometry width="50" height="50" relative="1" as="geometry">
            <mxPoint x="2872" y="1450" as="sourcePoint" />
            <mxPoint x="3157" y="1560" as="targetPoint" />
          </mxGeometry>
        </mxCell>
        <mxCell id="uqeAqKsrdyoIgIY8dId6-257" value="주문" style="rhombus;whiteSpace=wrap;html=1;fontSize=16;" parent="1" vertex="1">
          <mxGeometry x="2236" y="880" width="120" height="60" as="geometry" />
        </mxCell>
        <mxCell id="uqeAqKsrdyoIgIY8dId6-258" value="주문번호" style="ellipse;whiteSpace=wrap;html=1;fontSize=16;fontStyle=5;fontColor=#f90b0b;" parent="1" vertex="1">
          <mxGeometry x="1892" y="830" width="110" height="50" as="geometry" />
        </mxCell>
        <mxCell id="uqeAqKsrdyoIgIY8dId6-259" value="아이디" style="ellipse;whiteSpace=wrap;html=1;fontSize=16;fontStyle=1;fontColor=#0084ff;" parent="1" vertex="1">
          <mxGeometry x="1858" y="770" width="110" height="50" as="geometry" />
        </mxCell>
        <mxCell id="uqeAqKsrdyoIgIY8dId6-260" value="상품코드" style="ellipse;whiteSpace=wrap;html=1;fontSize=16;fontStyle=1;fontColor=#0084ff;" parent="1" vertex="1">
          <mxGeometry x="1902" y="720" width="118.88" height="50" as="geometry" />
        </mxCell>
        <mxCell id="uqeAqKsrdyoIgIY8dId6-261" value="수량" style="ellipse;whiteSpace=wrap;html=1;fontSize=16;" parent="1" vertex="1">
          <mxGeometry x="1984" y="680" width="110" height="50" as="geometry" />
        </mxCell>
        <mxCell id="uqeAqKsrdyoIgIY8dId6-262" value="" style="endArrow=classic;html=1;rounded=0;exitX=0.5;exitY=0;exitDx=0;exitDy=0;entryX=1;entryY=0.5;entryDx=0;entryDy=0;fontSize=16;" parent="1" target="uqeAqKsrdyoIgIY8dId6-258" edge="1">
          <mxGeometry width="50" height="50" relative="1" as="geometry">
            <mxPoint x="2298" y="880" as="sourcePoint" />
            <mxPoint x="2344" y="810" as="targetPoint" />
          </mxGeometry>
        </mxCell>
        <mxCell id="uqeAqKsrdyoIgIY8dId6-263" value="" style="endArrow=classic;html=1;rounded=0;exitX=0.5;exitY=0;exitDx=0;exitDy=0;entryX=1;entryY=1;entryDx=0;entryDy=0;fontSize=16;" parent="1" target="uqeAqKsrdyoIgIY8dId6-259" edge="1">
          <mxGeometry width="50" height="50" relative="1" as="geometry">
            <mxPoint x="2298" y="880" as="sourcePoint" />
            <mxPoint x="2116" y="791" as="targetPoint" />
          </mxGeometry>
        </mxCell>
        <mxCell id="uqeAqKsrdyoIgIY8dId6-264" value="" style="endArrow=classic;html=1;rounded=0;exitX=0.5;exitY=0;exitDx=0;exitDy=0;fontSize=16;entryX=1;entryY=1;entryDx=0;entryDy=0;" parent="1" target="uqeAqKsrdyoIgIY8dId6-260" edge="1">
          <mxGeometry width="50" height="50" relative="1" as="geometry">
            <mxPoint x="2298" y="880" as="sourcePoint" />
            <mxPoint x="1972" y="770" as="targetPoint" />
          </mxGeometry>
        </mxCell>
        <mxCell id="uqeAqKsrdyoIgIY8dId6-265" value="" style="endArrow=classic;html=1;rounded=0;exitX=0.5;exitY=0;exitDx=0;exitDy=0;entryX=0.683;entryY=0.98;entryDx=0;entryDy=0;fontSize=16;entryPerimeter=0;" parent="1" target="uqeAqKsrdyoIgIY8dId6-261" edge="1">
          <mxGeometry width="50" height="50" relative="1" as="geometry">
            <mxPoint x="2298" y="880" as="sourcePoint" />
            <mxPoint x="2136" y="811" as="targetPoint" />
          </mxGeometry>
        </mxCell>
        <mxCell id="uqeAqKsrdyoIgIY8dId6-266" value="" style="endArrow=classic;html=1;rounded=0;entryX=0.5;entryY=1;entryDx=0;entryDy=0;fontSize=16;" parent="1" target="uqeAqKsrdyoIgIY8dId6-328" edge="1">
          <mxGeometry width="50" height="50" relative="1" as="geometry">
            <mxPoint x="2292" y="880" as="sourcePoint" />
            <mxPoint x="2146" y="821" as="targetPoint" />
          </mxGeometry>
        </mxCell>
        <mxCell id="uqeAqKsrdyoIgIY8dId6-267" value="장바구니" style="rhombus;whiteSpace=wrap;html=1;fontSize=16;" parent="1" vertex="1">
          <mxGeometry x="2242" y="530" width="120" height="60" as="geometry" />
        </mxCell>
        <mxCell id="uqeAqKsrdyoIgIY8dId6-268" value="순번" style="ellipse;whiteSpace=wrap;html=1;fontSize=16;fontStyle=1;fontColor=#fb0404;" parent="1" vertex="1">
          <mxGeometry x="2025.25" y="420" width="110" height="50" as="geometry" />
        </mxCell>
        <mxCell id="uqeAqKsrdyoIgIY8dId6-269" value="아이디" style="ellipse;whiteSpace=wrap;html=1;fontSize=16;fontStyle=1;fontColor=#0084ff;" parent="1" vertex="1">
          <mxGeometry x="2168.75" y="420" width="110" height="50" as="geometry" />
        </mxCell>
        <mxCell id="uqeAqKsrdyoIgIY8dId6-270" value="상품코드" style="ellipse;whiteSpace=wrap;html=1;fontSize=16;fontStyle=1;fontColor=#0084ff;" parent="1" vertex="1">
          <mxGeometry x="2316.25" y="420" width="110" height="50" as="geometry" />
        </mxCell>
        <mxCell id="uqeAqKsrdyoIgIY8dId6-271" value="수량" style="ellipse;whiteSpace=wrap;html=1;fontSize=16;" parent="1" vertex="1">
          <mxGeometry x="2456.75" y="420" width="110" height="50" as="geometry" />
        </mxCell>
        <mxCell id="uqeAqKsrdyoIgIY8dId6-272" value="" style="endArrow=classic;html=1;rounded=0;exitX=0.5;exitY=0;exitDx=0;exitDy=0;entryX=0.595;entryY=1.045;entryDx=0;entryDy=0;entryPerimeter=0;fontSize=16;" parent="1" target="uqeAqKsrdyoIgIY8dId6-268" edge="1">
          <mxGeometry width="50" height="50" relative="1" as="geometry">
            <mxPoint x="2307.38" y="530" as="sourcePoint" />
            <mxPoint x="2415.38" y="630" as="targetPoint" />
          </mxGeometry>
        </mxCell>
        <mxCell id="uqeAqKsrdyoIgIY8dId6-273" value="" style="endArrow=classic;html=1;rounded=0;entryX=0.5;entryY=1;entryDx=0;entryDy=0;fontSize=16;" parent="1" target="uqeAqKsrdyoIgIY8dId6-269" edge="1">
          <mxGeometry width="50" height="50" relative="1" as="geometry">
            <mxPoint x="2305.88" y="530" as="sourcePoint" />
            <mxPoint x="2129.38" y="452" as="targetPoint" />
          </mxGeometry>
        </mxCell>
        <mxCell id="uqeAqKsrdyoIgIY8dId6-274" value="" style="endArrow=classic;html=1;rounded=0;entryX=0.5;entryY=1;entryDx=0;entryDy=0;fontSize=16;" parent="1" target="uqeAqKsrdyoIgIY8dId6-270" edge="1">
          <mxGeometry width="50" height="50" relative="1" as="geometry">
            <mxPoint x="2305.88" y="530" as="sourcePoint" />
            <mxPoint x="2263.38" y="450" as="targetPoint" />
          </mxGeometry>
        </mxCell>
        <mxCell id="uqeAqKsrdyoIgIY8dId6-275" value="" style="endArrow=classic;html=1;rounded=0;entryX=0.434;entryY=1.045;entryDx=0;entryDy=0;entryPerimeter=0;exitX=0.5;exitY=0;exitDx=0;exitDy=0;fontSize=16;" parent="1" target="uqeAqKsrdyoIgIY8dId6-271" edge="1">
          <mxGeometry width="50" height="50" relative="1" as="geometry">
            <mxPoint x="2307.38" y="530" as="sourcePoint" />
            <mxPoint x="2410.38" y="450" as="targetPoint" />
          </mxGeometry>
        </mxCell>
        <mxCell id="uqeAqKsrdyoIgIY8dId6-276" value="1" style="text;html=1;strokeColor=none;fillColor=none;align=center;verticalAlign=middle;whiteSpace=wrap;rounded=0;fontSize=16;" parent="1" vertex="1">
          <mxGeometry x="2182" y="890" width="60" height="30" as="geometry" />
        </mxCell>
        <mxCell id="uqeAqKsrdyoIgIY8dId6-277" value="n" style="text;html=1;strokeColor=none;fillColor=none;align=center;verticalAlign=middle;whiteSpace=wrap;rounded=0;fontSize=16;" parent="1" vertex="1">
          <mxGeometry x="2354" y="890" width="60" height="30" as="geometry" />
        </mxCell>
        <mxCell id="uqeAqKsrdyoIgIY8dId6-278" value="1" style="text;html=1;strokeColor=none;fillColor=none;align=center;verticalAlign=middle;whiteSpace=wrap;rounded=0;fontSize=16;" parent="1" vertex="1">
          <mxGeometry x="2183.88" y="520" width="60" height="30" as="geometry" />
        </mxCell>
        <mxCell id="uqeAqKsrdyoIgIY8dId6-279" value="n" style="text;html=1;strokeColor=none;fillColor=none;align=center;verticalAlign=middle;whiteSpace=wrap;rounded=0;fontSize=16;" parent="1" vertex="1">
          <mxGeometry x="2353.38" y="520" width="60" height="30" as="geometry" />
        </mxCell>
        <mxCell id="uqeAqKsrdyoIgIY8dId6-280" value="결제" style="rhombus;whiteSpace=wrap;html=1;fontSize=16;" parent="1" vertex="1">
          <mxGeometry x="2240" y="1040" width="120" height="60" as="geometry" />
        </mxCell>
        <mxCell id="uqeAqKsrdyoIgIY8dId6-281" value="" style="endArrow=classic;html=1;rounded=0;exitX=0.5;exitY=1;exitDx=0;exitDy=0;fontSize=16;strokeWidth=3;" parent="1" source="uqeAqKsrdyoIgIY8dId6-257" target="uqeAqKsrdyoIgIY8dId6-280" edge="1">
          <mxGeometry width="50" height="50" relative="1" as="geometry">
            <mxPoint x="2382" y="1080" as="sourcePoint" />
            <mxPoint x="2432" y="1030" as="targetPoint" />
          </mxGeometry>
        </mxCell>
        <mxCell id="uqeAqKsrdyoIgIY8dId6-282" value="결제번호" style="ellipse;whiteSpace=wrap;html=1;fontSize=16;fontStyle=1;fontColor=#f70202;" parent="1" vertex="1">
          <mxGeometry x="1941" y="1290" width="82" height="50" as="geometry" />
        </mxCell>
        <mxCell id="uqeAqKsrdyoIgIY8dId6-283" value="아이디" style="ellipse;whiteSpace=wrap;html=1;fontSize=16;fontStyle=1;fontColor=#0084ff;" parent="1" vertex="1">
          <mxGeometry x="2054.38" y="1290" width="84" height="50" as="geometry" />
        </mxCell>
        <mxCell id="uqeAqKsrdyoIgIY8dId6-284" value="주문번호" style="ellipse;whiteSpace=wrap;html=1;fontSize=16;fontStyle=1;fontColor=#0084ff;" parent="1" vertex="1">
          <mxGeometry x="2160.5" y="1290" width="84" height="50" as="geometry" />
        </mxCell>
        <mxCell id="uqeAqKsrdyoIgIY8dId6-285" value="결제수단" style="ellipse;whiteSpace=wrap;html=1;fontSize=16;" parent="1" vertex="1">
          <mxGeometry x="2331.5" y="1290" width="84" height="50" as="geometry" />
        </mxCell>
        <mxCell id="uqeAqKsrdyoIgIY8dId6-286" value="결제수단&lt;br&gt;번호" style="ellipse;whiteSpace=wrap;html=1;fontSize=16;" parent="1" vertex="1">
          <mxGeometry x="2425" y="1290" width="93.5" height="50" as="geometry" />
        </mxCell>
        <mxCell id="uqeAqKsrdyoIgIY8dId6-287" value="결제금액" style="ellipse;whiteSpace=wrap;html=1;fontSize=16;" parent="1" vertex="1">
          <mxGeometry x="2524" y="1290" width="84" height="50" as="geometry" />
        </mxCell>
        <mxCell id="uqeAqKsrdyoIgIY8dId6-288" value="결제일" style="ellipse;whiteSpace=wrap;html=1;fontSize=16;" parent="1" vertex="1">
          <mxGeometry x="2627" y="1290" width="84" height="50" as="geometry" />
        </mxCell>
        <mxCell id="uqeAqKsrdyoIgIY8dId6-289" value="1" style="text;html=1;strokeColor=none;fillColor=none;align=center;verticalAlign=middle;whiteSpace=wrap;rounded=0;fontSize=16;" parent="1" vertex="1">
          <mxGeometry x="2182" y="1040" width="60" height="30" as="geometry" />
        </mxCell>
        <mxCell id="uqeAqKsrdyoIgIY8dId6-290" value="n" style="text;html=1;strokeColor=none;fillColor=none;align=center;verticalAlign=middle;whiteSpace=wrap;rounded=0;fontSize=16;" parent="1" vertex="1">
          <mxGeometry x="2365" y="1040" width="60" height="30" as="geometry" />
        </mxCell>
        <mxCell id="uqeAqKsrdyoIgIY8dId6-291" value="" style="endArrow=classic;html=1;rounded=0;exitX=0.5;exitY=1;exitDx=0;exitDy=0;entryX=0.662;entryY=-0.055;entryDx=0;entryDy=0;entryPerimeter=0;fontSize=16;" parent="1" source="uqeAqKsrdyoIgIY8dId6-280" target="uqeAqKsrdyoIgIY8dId6-282" edge="1">
          <mxGeometry width="50" height="50" relative="1" as="geometry">
            <mxPoint x="2377.5" y="1140" as="sourcePoint" />
            <mxPoint x="2427.5" y="1090" as="targetPoint" />
          </mxGeometry>
        </mxCell>
        <mxCell id="uqeAqKsrdyoIgIY8dId6-292" value="" style="endArrow=classic;html=1;rounded=0;entryX=0.5;entryY=0;entryDx=0;entryDy=0;fontSize=16;" parent="1" target="uqeAqKsrdyoIgIY8dId6-283" edge="1">
          <mxGeometry width="50" height="50" relative="1" as="geometry">
            <mxPoint x="2298" y="1110" as="sourcePoint" />
            <mxPoint x="2035.5" y="1107" as="targetPoint" />
          </mxGeometry>
        </mxCell>
        <mxCell id="uqeAqKsrdyoIgIY8dId6-293" value="" style="endArrow=classic;html=1;rounded=0;entryX=0.5;entryY=0;entryDx=0;entryDy=0;fontSize=16;" parent="1" target="uqeAqKsrdyoIgIY8dId6-284" edge="1">
          <mxGeometry width="50" height="50" relative="1" as="geometry">
            <mxPoint x="2300" y="1100" as="sourcePoint" />
            <mxPoint x="2136.5" y="1110" as="targetPoint" />
          </mxGeometry>
        </mxCell>
        <mxCell id="uqeAqKsrdyoIgIY8dId6-294" value="" style="endArrow=classic;html=1;rounded=0;entryX=0.5;entryY=0;entryDx=0;entryDy=0;exitX=0.5;exitY=1;exitDx=0;exitDy=0;fontSize=16;" parent="1" source="uqeAqKsrdyoIgIY8dId6-280" target="uqeAqKsrdyoIgIY8dId6-285" edge="1">
          <mxGeometry width="50" height="50" relative="1" as="geometry">
            <mxPoint x="2317.5" y="1050" as="sourcePoint" />
            <mxPoint x="2243.5" y="1110" as="targetPoint" />
          </mxGeometry>
        </mxCell>
        <mxCell id="uqeAqKsrdyoIgIY8dId6-295" value="" style="endArrow=classic;html=1;rounded=0;entryX=0.387;entryY=-0.055;entryDx=0;entryDy=0;exitX=0.5;exitY=1;exitDx=0;exitDy=0;entryPerimeter=0;fontSize=16;" parent="1" source="uqeAqKsrdyoIgIY8dId6-280" target="uqeAqKsrdyoIgIY8dId6-286" edge="1">
          <mxGeometry width="50" height="50" relative="1" as="geometry">
            <mxPoint x="2313.5" y="1050" as="sourcePoint" />
            <mxPoint x="2355.5" y="1110" as="targetPoint" />
          </mxGeometry>
        </mxCell>
        <mxCell id="uqeAqKsrdyoIgIY8dId6-296" value="" style="endArrow=classic;html=1;rounded=0;entryX=0.393;entryY=-0.03;entryDx=0;entryDy=0;entryPerimeter=0;fontSize=16;" parent="1" target="uqeAqKsrdyoIgIY8dId6-287" edge="1">
          <mxGeometry width="50" height="50" relative="1" as="geometry">
            <mxPoint x="2300" y="1100" as="sourcePoint" />
            <mxPoint x="2449.5" y="1107" as="targetPoint" />
          </mxGeometry>
        </mxCell>
        <mxCell id="uqeAqKsrdyoIgIY8dId6-297" value="" style="endArrow=classic;html=1;rounded=0;entryX=0.5;entryY=0;entryDx=0;entryDy=0;fontSize=16;" parent="1" target="uqeAqKsrdyoIgIY8dId6-288" edge="1">
          <mxGeometry width="50" height="50" relative="1" as="geometry">
            <mxPoint x="2300" y="1100" as="sourcePoint" />
            <mxPoint x="2539.5" y="1109" as="targetPoint" />
          </mxGeometry>
        </mxCell>
        <mxCell id="uqeAqKsrdyoIgIY8dId6-298" value="이용후기" style="rounded=0;whiteSpace=wrap;html=1;fontSize=16;" parent="1" vertex="1">
          <mxGeometry x="2256.5" y="1630" width="120" height="60" as="geometry" />
        </mxCell>
        <mxCell id="uqeAqKsrdyoIgIY8dId6-299" value="아이디" style="ellipse;whiteSpace=wrap;html=1;fontSize=16;fontStyle=1;fontColor=#3399FF;" parent="1" vertex="1">
          <mxGeometry x="2099" y="1840" width="110" height="50" as="geometry" />
        </mxCell>
        <mxCell id="uqeAqKsrdyoIgIY8dId6-300" value="주문번호" style="ellipse;whiteSpace=wrap;html=1;fontSize=16;fontStyle=1;fontColor=#3399FF;" parent="1" vertex="1">
          <mxGeometry x="2229" y="1850" width="110" height="50" as="geometry" />
        </mxCell>
        <mxCell id="uqeAqKsrdyoIgIY8dId6-301" value="글번호" style="ellipse;whiteSpace=wrap;html=1;fontSize=16;fontStyle=1;fontColor=#f70202;" parent="1" vertex="1">
          <mxGeometry x="1977" y="1810" width="110" height="50" as="geometry" />
        </mxCell>
        <mxCell id="uqeAqKsrdyoIgIY8dId6-302" value="작성일" style="ellipse;whiteSpace=wrap;html=1;fontSize=16;" parent="1" vertex="1">
          <mxGeometry x="2354" y="1860" width="110" height="50" as="geometry" />
        </mxCell>
        <mxCell id="uqeAqKsrdyoIgIY8dId6-303" value="이용후기" style="ellipse;whiteSpace=wrap;html=1;fontSize=16;" parent="1" vertex="1">
          <mxGeometry x="2487" y="1850" width="110" height="50" as="geometry" />
        </mxCell>
        <mxCell id="uqeAqKsrdyoIgIY8dId6-304" value="별점" style="ellipse;whiteSpace=wrap;html=1;fontSize=16;" parent="1" vertex="1">
          <mxGeometry x="2605.5" y="1810" width="110" height="50" as="geometry" />
        </mxCell>
        <mxCell id="uqeAqKsrdyoIgIY8dId6-305" value="" style="endArrow=classic;html=1;rounded=0;exitX=0.5;exitY=1;exitDx=0;exitDy=0;entryX=0.5;entryY=0;entryDx=0;entryDy=0;fontSize=16;" parent="1" source="uqeAqKsrdyoIgIY8dId6-298" target="uqeAqKsrdyoIgIY8dId6-301" edge="1">
          <mxGeometry width="50" height="50" relative="1" as="geometry">
            <mxPoint x="2344.5" y="1610" as="sourcePoint" />
            <mxPoint x="2394.5" y="1560" as="targetPoint" />
          </mxGeometry>
        </mxCell>
        <mxCell id="uqeAqKsrdyoIgIY8dId6-306" value="" style="endArrow=classic;html=1;rounded=0;entryX=0.5;entryY=0;entryDx=0;entryDy=0;fontSize=16;" parent="1" target="uqeAqKsrdyoIgIY8dId6-299" edge="1">
          <mxGeometry width="50" height="50" relative="1" as="geometry">
            <mxPoint x="2314.5" y="1690" as="sourcePoint" />
            <mxPoint x="1962.5" y="1820" as="targetPoint" />
          </mxGeometry>
        </mxCell>
        <mxCell id="uqeAqKsrdyoIgIY8dId6-307" value="" style="endArrow=classic;html=1;rounded=0;entryX=0.5;entryY=0;entryDx=0;entryDy=0;exitX=0.5;exitY=1;exitDx=0;exitDy=0;fontSize=16;" parent="1" source="uqeAqKsrdyoIgIY8dId6-298" target="uqeAqKsrdyoIgIY8dId6-300" edge="1">
          <mxGeometry width="50" height="50" relative="1" as="geometry">
            <mxPoint x="2324.5" y="1700" as="sourcePoint" />
            <mxPoint x="2085.5" y="1820" as="targetPoint" />
          </mxGeometry>
        </mxCell>
        <mxCell id="uqeAqKsrdyoIgIY8dId6-308" value="" style="endArrow=classic;html=1;rounded=0;entryX=0.5;entryY=0;entryDx=0;entryDy=0;fontSize=16;" parent="1" target="uqeAqKsrdyoIgIY8dId6-302" edge="1">
          <mxGeometry width="50" height="50" relative="1" as="geometry">
            <mxPoint x="2314.5" y="1690" as="sourcePoint" />
            <mxPoint x="2209.5" y="1820" as="targetPoint" />
          </mxGeometry>
        </mxCell>
        <mxCell id="uqeAqKsrdyoIgIY8dId6-309" value="" style="endArrow=classic;html=1;rounded=0;entryX=0.5;entryY=0;entryDx=0;entryDy=0;fontSize=16;" parent="1" target="uqeAqKsrdyoIgIY8dId6-303" edge="1">
          <mxGeometry width="50" height="50" relative="1" as="geometry">
            <mxPoint x="2314.5" y="1690" as="sourcePoint" />
            <mxPoint x="2333.5" y="1820" as="targetPoint" />
          </mxGeometry>
        </mxCell>
        <mxCell id="uqeAqKsrdyoIgIY8dId6-310" value="" style="endArrow=classic;html=1;rounded=0;entryX=0.393;entryY=-0.03;entryDx=0;entryDy=0;exitX=0.5;exitY=1;exitDx=0;exitDy=0;entryPerimeter=0;fontSize=16;" parent="1" source="uqeAqKsrdyoIgIY8dId6-298" target="uqeAqKsrdyoIgIY8dId6-304" edge="1">
          <mxGeometry width="50" height="50" relative="1" as="geometry">
            <mxPoint x="2324.5" y="1700" as="sourcePoint" />
            <mxPoint x="2459.5" y="1820" as="targetPoint" />
          </mxGeometry>
        </mxCell>
        <mxCell id="uqeAqKsrdyoIgIY8dId6-311" value="" style="endArrow=classic;html=1;rounded=0;exitX=0.5;exitY=1;exitDx=0;exitDy=0;fontSize=16;strokeWidth=3;entryX=0.438;entryY=0.017;entryDx=0;entryDy=0;entryPerimeter=0;" parent="1" source="uqeAqKsrdyoIgIY8dId6-280" target="uqeAqKsrdyoIgIY8dId6-298" edge="1">
          <mxGeometry width="50" height="50" relative="1" as="geometry">
            <mxPoint x="2312.5" y="950" as="sourcePoint" />
            <mxPoint x="2312.5" y="990" as="targetPoint" />
          </mxGeometry>
        </mxCell>
        <mxCell id="uqeAqKsrdyoIgIY8dId6-312" value="1" style="text;html=1;strokeColor=none;fillColor=none;align=center;verticalAlign=middle;whiteSpace=wrap;rounded=0;fontSize=16;" parent="1" vertex="1">
          <mxGeometry x="2286.5" y="970" width="60" height="30" as="geometry" />
        </mxCell>
        <mxCell id="uqeAqKsrdyoIgIY8dId6-313" value="1" style="text;html=1;strokeColor=none;fillColor=none;align=center;verticalAlign=middle;whiteSpace=wrap;rounded=0;fontSize=16;" parent="1" vertex="1">
          <mxGeometry x="2296" y="1600" width="60" height="30" as="geometry" />
        </mxCell>
        <mxCell id="uqeAqKsrdyoIgIY8dId6-314" value="이메일" style="ellipse;whiteSpace=wrap;html=1;fontSize=16;" parent="1" vertex="1">
          <mxGeometry x="1890" y="1550" width="110" height="50" as="geometry" />
        </mxCell>
        <mxCell id="uqeAqKsrdyoIgIY8dId6-315" value="포인트" style="ellipse;whiteSpace=wrap;html=1;fontSize=16;" parent="1" vertex="1">
          <mxGeometry x="2013" y="1540" width="110" height="50" as="geometry" />
        </mxCell>
        <mxCell id="uqeAqKsrdyoIgIY8dId6-316" value="방문횟수" style="ellipse;whiteSpace=wrap;html=1;fontSize=16;" parent="1" vertex="1">
          <mxGeometry x="2111.5" y="1500" width="110" height="50" as="geometry" />
        </mxCell>
        <mxCell id="uqeAqKsrdyoIgIY8dId6-317" value="" style="endArrow=classic;html=1;rounded=0;entryX=0.5;entryY=0;entryDx=0;entryDy=0;fontSize=16;" parent="1" target="uqeAqKsrdyoIgIY8dId6-314" edge="1">
          <mxGeometry width="50" height="50" relative="1" as="geometry">
            <mxPoint x="1835" y="1410" as="sourcePoint" />
            <mxPoint x="1835" y="1560" as="targetPoint" />
          </mxGeometry>
        </mxCell>
        <mxCell id="uqeAqKsrdyoIgIY8dId6-318" value="" style="endArrow=classic;html=1;rounded=0;fontSize=16;" parent="1" target="uqeAqKsrdyoIgIY8dId6-315" edge="1">
          <mxGeometry width="50" height="50" relative="1" as="geometry">
            <mxPoint x="1840" y="1410" as="sourcePoint" />
            <mxPoint x="1845" y="1570" as="targetPoint" />
          </mxGeometry>
        </mxCell>
        <mxCell id="uqeAqKsrdyoIgIY8dId6-319" value="" style="endArrow=classic;html=1;rounded=0;entryX=0;entryY=0;entryDx=0;entryDy=0;fontSize=16;" parent="1" target="uqeAqKsrdyoIgIY8dId6-316" edge="1">
          <mxGeometry width="50" height="50" relative="1" as="geometry">
            <mxPoint x="1840" y="1410" as="sourcePoint" />
            <mxPoint x="1855" y="1580" as="targetPoint" />
          </mxGeometry>
        </mxCell>
        <mxCell id="uqeAqKsrdyoIgIY8dId6-320" value="수량" style="ellipse;whiteSpace=wrap;html=1;fontSize=16;" parent="1" vertex="1">
          <mxGeometry x="2910" y="1620" width="110" height="50" as="geometry" />
        </mxCell>
        <mxCell id="uqeAqKsrdyoIgIY8dId6-321" value="상품대표&lt;br&gt;이미지1" style="ellipse;whiteSpace=wrap;html=1;fontSize=16;" parent="1" vertex="1">
          <mxGeometry x="3030" y="1620" width="110" height="50" as="geometry" />
        </mxCell>
        <mxCell id="uqeAqKsrdyoIgIY8dId6-322" value="삼품상세&lt;br&gt;이미지2" style="ellipse;whiteSpace=wrap;html=1;fontSize=16;" parent="1" vertex="1">
          <mxGeometry x="3140" y="1585" width="110" height="50" as="geometry" />
        </mxCell>
        <mxCell id="uqeAqKsrdyoIgIY8dId6-323" value="상품상세&lt;br&gt;이미지3" style="ellipse;whiteSpace=wrap;html=1;fontSize=16;" parent="1" vertex="1">
          <mxGeometry x="3213.5" y="1520" width="110" height="50" as="geometry" />
        </mxCell>
        <mxCell id="uqeAqKsrdyoIgIY8dId6-324" value="" style="endArrow=classic;html=1;rounded=0;entryX=0.5;entryY=0;entryDx=0;entryDy=0;fontSize=16;" parent="1" target="uqeAqKsrdyoIgIY8dId6-320" edge="1">
          <mxGeometry width="50" height="50" relative="1" as="geometry">
            <mxPoint x="2870" y="1450" as="sourcePoint" />
            <mxPoint x="2845" y="1629" as="targetPoint" />
          </mxGeometry>
        </mxCell>
        <mxCell id="uqeAqKsrdyoIgIY8dId6-325" value="" style="endArrow=classic;html=1;rounded=0;entryX=0.347;entryY=0.029;entryDx=0;entryDy=0;fontSize=16;entryPerimeter=0;" parent="1" target="uqeAqKsrdyoIgIY8dId6-321" edge="1">
          <mxGeometry width="50" height="50" relative="1" as="geometry">
            <mxPoint x="2870" y="1450" as="sourcePoint" />
            <mxPoint x="2855" y="1639" as="targetPoint" />
          </mxGeometry>
        </mxCell>
        <mxCell id="uqeAqKsrdyoIgIY8dId6-326" value="" style="endArrow=classic;html=1;rounded=0;entryX=0;entryY=0;entryDx=0;entryDy=0;fontSize=16;exitX=0.5;exitY=1;exitDx=0;exitDy=0;" parent="1" source="uqeAqKsrdyoIgIY8dId6-236" target="uqeAqKsrdyoIgIY8dId6-322" edge="1">
          <mxGeometry width="50" height="50" relative="1" as="geometry">
            <mxPoint x="2880" y="1460" as="sourcePoint" />
            <mxPoint x="2865" y="1649" as="targetPoint" />
          </mxGeometry>
        </mxCell>
        <mxCell id="uqeAqKsrdyoIgIY8dId6-327" value="" style="endArrow=classic;html=1;rounded=0;entryX=0;entryY=0;entryDx=0;entryDy=0;fontSize=16;" parent="1" edge="1">
          <mxGeometry width="50" height="50" relative="1" as="geometry">
            <mxPoint x="2875" y="1450" as="sourcePoint" />
            <mxPoint x="3215.800891670151" y="1537.4635567998043" as="targetPoint" />
          </mxGeometry>
        </mxCell>
        <mxCell id="uqeAqKsrdyoIgIY8dId6-328" value="구입가" style="ellipse;whiteSpace=wrap;html=1;fontSize=16;" parent="1" vertex="1">
          <mxGeometry x="2101" y="670" width="110" height="50" as="geometry" />
        </mxCell>
        <mxCell id="uqeAqKsrdyoIgIY8dId6-329" value="배송일" style="ellipse;whiteSpace=wrap;html=1;fontSize=16;" parent="1" vertex="1">
          <mxGeometry x="2154" y="600" width="110" height="50" as="geometry" />
        </mxCell>
        <mxCell id="uqeAqKsrdyoIgIY8dId6-330" value="배송중" style="ellipse;whiteSpace=wrap;html=1;fontSize=16;" parent="1" vertex="1">
          <mxGeometry x="2355.38" y="670" width="110" height="50" as="geometry" />
        </mxCell>
        <mxCell id="uqeAqKsrdyoIgIY8dId6-331" value="연락처" style="ellipse;whiteSpace=wrap;html=1;fontSize=16;" parent="1" vertex="1">
          <mxGeometry x="2472" y="690" width="110" height="50" as="geometry" />
        </mxCell>
        <mxCell id="uqeAqKsrdyoIgIY8dId6-332" value="택배사" style="ellipse;whiteSpace=wrap;html=1;fontSize=16;" parent="1" vertex="1">
          <mxGeometry x="2572.5" y="730" width="110" height="50" as="geometry" />
        </mxCell>
        <mxCell id="uqeAqKsrdyoIgIY8dId6-333" value="도착지 주소" style="ellipse;whiteSpace=wrap;html=1;fontSize=16;rotation=0;" parent="1" vertex="1">
          <mxGeometry x="2590" y="850" width="110" height="50" as="geometry" />
        </mxCell>
        <mxCell id="uqeAqKsrdyoIgIY8dId6-334" value="화물코드" style="ellipse;whiteSpace=wrap;html=1;fontSize=16;" parent="1" vertex="1">
          <mxGeometry x="2632" y="790" width="110" height="50" as="geometry" />
        </mxCell>
        <mxCell id="uqeAqKsrdyoIgIY8dId6-335" value="" style="endArrow=classic;html=1;rounded=0;entryX=0.5;entryY=1;entryDx=0;entryDy=0;fontSize=16;" parent="1" target="uqeAqKsrdyoIgIY8dId6-329" edge="1">
          <mxGeometry width="50" height="50" relative="1" as="geometry">
            <mxPoint x="2292" y="880" as="sourcePoint" />
            <mxPoint x="2166" y="730" as="targetPoint" />
          </mxGeometry>
        </mxCell>
        <mxCell id="uqeAqKsrdyoIgIY8dId6-336" value="" style="endArrow=classic;html=1;rounded=0;entryX=0.5;entryY=1;entryDx=0;entryDy=0;fontSize=16;" parent="1" target="uqeAqKsrdyoIgIY8dId6-330" edge="1">
          <mxGeometry width="50" height="50" relative="1" as="geometry">
            <mxPoint x="2292" y="880" as="sourcePoint" />
            <mxPoint x="2290" y="720" as="targetPoint" />
          </mxGeometry>
        </mxCell>
        <mxCell id="uqeAqKsrdyoIgIY8dId6-337" value="" style="endArrow=classic;html=1;rounded=0;entryX=0;entryY=1;entryDx=0;entryDy=0;fontSize=16;exitX=0.5;exitY=0;exitDx=0;exitDy=0;" parent="1" target="uqeAqKsrdyoIgIY8dId6-331" edge="1">
          <mxGeometry width="50" height="50" relative="1" as="geometry">
            <mxPoint x="2298" y="880" as="sourcePoint" />
            <mxPoint x="2300" y="730" as="targetPoint" />
          </mxGeometry>
        </mxCell>
        <mxCell id="uqeAqKsrdyoIgIY8dId6-338" value="" style="endArrow=classic;html=1;rounded=0;entryX=0;entryY=0.5;entryDx=0;entryDy=0;fontSize=16;exitX=0.5;exitY=0;exitDx=0;exitDy=0;" parent="1" target="uqeAqKsrdyoIgIY8dId6-332" edge="1">
          <mxGeometry width="50" height="50" relative="1" as="geometry">
            <mxPoint x="2298" y="880" as="sourcePoint" />
            <mxPoint x="2310" y="740" as="targetPoint" />
          </mxGeometry>
        </mxCell>
        <mxCell id="uqeAqKsrdyoIgIY8dId6-339" value="" style="endArrow=classic;html=1;rounded=0;entryX=0;entryY=0.5;entryDx=0;entryDy=0;fontSize=16;exitX=0.5;exitY=0;exitDx=0;exitDy=0;" parent="1" target="uqeAqKsrdyoIgIY8dId6-334" edge="1">
          <mxGeometry width="50" height="50" relative="1" as="geometry">
            <mxPoint x="2298" y="880" as="sourcePoint" />
            <mxPoint x="2320" y="750" as="targetPoint" />
          </mxGeometry>
        </mxCell>
        <mxCell id="uqeAqKsrdyoIgIY8dId6-340" value="" style="endArrow=classic;html=1;rounded=0;entryX=0;entryY=0.5;entryDx=0;entryDy=0;fontSize=16;" parent="1" edge="1">
          <mxGeometry width="50" height="50" relative="1" as="geometry">
            <mxPoint x="2302" y="880" as="sourcePoint" />
            <mxPoint x="2592.0000000000005" y="875" as="targetPoint" />
          </mxGeometry>
        </mxCell>
        <mxCell id="uqeAqKsrdyoIgIY8dId6-341" style="edgeStyle=orthogonalEdgeStyle;rounded=0;orthogonalLoop=1;jettySize=auto;html=1;exitX=0.5;exitY=1;exitDx=0;exitDy=0;" parent="1" source="uqeAqKsrdyoIgIY8dId6-277" target="uqeAqKsrdyoIgIY8dId6-277" edge="1">
          <mxGeometry relative="1" as="geometry" />
        </mxCell>
        <mxCell id="uqeAqKsrdyoIgIY8dId6-342" value="" style="endArrow=classic;html=1;rounded=0;entryX=0.5;entryY=0;entryDx=0;entryDy=0;fontSize=16;exitX=0.5;exitY=1;exitDx=0;exitDy=0;dashed=1;strokeWidth=4;strokeColor=#ff0000;" parent="1" source="uqeAqKsrdyoIgIY8dId6-267" target="uqeAqKsrdyoIgIY8dId6-257" edge="1">
          <mxGeometry width="50" height="50" relative="1" as="geometry">
            <mxPoint x="2530" y="510" as="sourcePoint" />
            <mxPoint x="2514" y="482" as="targetPoint" />
          </mxGeometry>
        </mxCell>
        <mxCell id="uqy_jj-NDFEcj7-FZCHa-21" style="edgeStyle=orthogonalEdgeStyle;rounded=0;orthogonalLoop=1;jettySize=auto;html=1;exitX=0.5;exitY=0;exitDx=0;exitDy=0;entryX=0;entryY=0.5;entryDx=0;entryDy=0;" parent="1" source="uqy_jj-NDFEcj7-FZCHa-1" target="uqy_jj-NDFEcj7-FZCHa-20" edge="1">
          <mxGeometry relative="1" as="geometry" />
        </mxCell>
        <mxCell id="uqy_jj-NDFEcj7-FZCHa-1" value="공지사항" style="rounded=0;whiteSpace=wrap;html=1;fontSize=16;" parent="1" vertex="1">
          <mxGeometry x="770" y="1330" width="120" height="60" as="geometry" />
        </mxCell>
        <mxCell id="uqy_jj-NDFEcj7-FZCHa-4" value="글번호" style="ellipse;whiteSpace=wrap;html=1;fontSize=16;fontStyle=1;fontColor=#f70202;" parent="1" vertex="1">
          <mxGeometry x="500" y="1480" width="110" height="50" as="geometry" />
        </mxCell>
        <mxCell id="uqy_jj-NDFEcj7-FZCHa-6" value="제목" style="ellipse;whiteSpace=wrap;html=1;fontSize=16;" parent="1" vertex="1">
          <mxGeometry x="540" y="1550" width="110" height="50" as="geometry" />
        </mxCell>
        <mxCell id="uqy_jj-NDFEcj7-FZCHa-7" value="내용" style="ellipse;whiteSpace=wrap;html=1;fontSize=16;" parent="1" vertex="1">
          <mxGeometry x="630" y="1600" width="110" height="50" as="geometry" />
        </mxCell>
        <mxCell id="uqy_jj-NDFEcj7-FZCHa-8" value="작성자" style="ellipse;whiteSpace=wrap;html=1;fontSize=16;" parent="1" vertex="1">
          <mxGeometry x="750" y="1620" width="110" height="50" as="geometry" />
        </mxCell>
        <mxCell id="uqy_jj-NDFEcj7-FZCHa-9" value="첨부파일" style="ellipse;whiteSpace=wrap;html=1;fontSize=16;" parent="1" vertex="1">
          <mxGeometry x="870" y="1600" width="110" height="50" as="geometry" />
        </mxCell>
        <mxCell id="uqy_jj-NDFEcj7-FZCHa-10" value="작성일" style="ellipse;whiteSpace=wrap;html=1;fontSize=16;" parent="1" vertex="1">
          <mxGeometry x="980" y="1560" width="110" height="50" as="geometry" />
        </mxCell>
        <mxCell id="uqy_jj-NDFEcj7-FZCHa-11" value="읽은횟수" style="ellipse;whiteSpace=wrap;html=1;fontSize=16;" parent="1" vertex="1">
          <mxGeometry x="1060" y="1500" width="110" height="50" as="geometry" />
        </mxCell>
        <mxCell id="uqy_jj-NDFEcj7-FZCHa-13" value="" style="endArrow=classic;html=1;rounded=0;exitX=0.5;exitY=1;exitDx=0;exitDy=0;entryX=1;entryY=0;entryDx=0;entryDy=0;" parent="1" source="uqy_jj-NDFEcj7-FZCHa-1" target="uqy_jj-NDFEcj7-FZCHa-4" edge="1">
          <mxGeometry width="50" height="50" relative="1" as="geometry">
            <mxPoint x="1585" y="2010" as="sourcePoint" />
            <mxPoint x="1165" y="2060" as="targetPoint" />
          </mxGeometry>
        </mxCell>
        <mxCell id="uqy_jj-NDFEcj7-FZCHa-14" value="" style="endArrow=classic;html=1;rounded=0;exitX=0.5;exitY=1;exitDx=0;exitDy=0;" parent="1" source="uqy_jj-NDFEcj7-FZCHa-1" target="uqy_jj-NDFEcj7-FZCHa-6" edge="1">
          <mxGeometry width="50" height="50" relative="1" as="geometry">
            <mxPoint x="840" y="1400" as="sourcePoint" />
            <mxPoint x="604" y="1557" as="targetPoint" />
          </mxGeometry>
        </mxCell>
        <mxCell id="uqy_jj-NDFEcj7-FZCHa-15" value="" style="endArrow=classic;html=1;rounded=0;entryX=0.606;entryY=0.066;entryDx=0;entryDy=0;entryPerimeter=0;" parent="1" target="uqy_jj-NDFEcj7-FZCHa-7" edge="1">
          <mxGeometry width="50" height="50" relative="1" as="geometry">
            <mxPoint x="830" y="1390" as="sourcePoint" />
            <mxPoint x="627" y="1622" as="targetPoint" />
          </mxGeometry>
        </mxCell>
        <mxCell id="uqy_jj-NDFEcj7-FZCHa-16" value="" style="endArrow=classic;html=1;rounded=0;entryX=0.5;entryY=0;entryDx=0;entryDy=0;exitX=0.5;exitY=1;exitDx=0;exitDy=0;" parent="1" source="uqy_jj-NDFEcj7-FZCHa-1" target="uqy_jj-NDFEcj7-FZCHa-8" edge="1">
          <mxGeometry width="50" height="50" relative="1" as="geometry">
            <mxPoint x="840" y="1400" as="sourcePoint" />
            <mxPoint x="707" y="1673" as="targetPoint" />
          </mxGeometry>
        </mxCell>
        <mxCell id="uqy_jj-NDFEcj7-FZCHa-17" value="" style="endArrow=classic;html=1;rounded=0;entryX=0.399;entryY=0.066;entryDx=0;entryDy=0;entryPerimeter=0;" parent="1" target="uqy_jj-NDFEcj7-FZCHa-9" edge="1">
          <mxGeometry width="50" height="50" relative="1" as="geometry">
            <mxPoint x="830" y="1390" as="sourcePoint" />
            <mxPoint x="815" y="1690" as="targetPoint" />
          </mxGeometry>
        </mxCell>
        <mxCell id="uqy_jj-NDFEcj7-FZCHa-18" value="" style="endArrow=classic;html=1;rounded=0;entryX=0.243;entryY=0.037;entryDx=0;entryDy=0;entryPerimeter=0;" parent="1" target="uqy_jj-NDFEcj7-FZCHa-10" edge="1">
          <mxGeometry width="50" height="50" relative="1" as="geometry">
            <mxPoint x="840" y="1390" as="sourcePoint" />
            <mxPoint x="924" y="1673" as="targetPoint" />
          </mxGeometry>
        </mxCell>
        <mxCell id="uqy_jj-NDFEcj7-FZCHa-19" value="" style="endArrow=classic;html=1;rounded=0;exitX=0.615;exitY=1.031;exitDx=0;exitDy=0;exitPerimeter=0;" parent="1" source="uqy_jj-NDFEcj7-FZCHa-1" target="uqy_jj-NDFEcj7-FZCHa-11" edge="1">
          <mxGeometry width="50" height="50" relative="1" as="geometry">
            <mxPoint x="850" y="1400" as="sourcePoint" />
            <mxPoint x="1017" y="1632" as="targetPoint" />
          </mxGeometry>
        </mxCell>
        <mxCell id="uqy_jj-NDFEcj7-FZCHa-20" value="작성" style="rhombus;whiteSpace=wrap;html=1;fontSize=16;" parent="1" vertex="1">
          <mxGeometry x="1250" y="1170" width="120" height="60" as="geometry" />
        </mxCell>
        <mxCell id="uqy_jj-NDFEcj7-FZCHa-23" value="1" style="text;html=1;strokeColor=none;fillColor=none;align=center;verticalAlign=middle;whiteSpace=wrap;rounded=0;fontSize=16;" parent="1" vertex="1">
          <mxGeometry x="1190" y="1170" width="60" height="30" as="geometry" />
        </mxCell>
        <mxCell id="uqy_jj-NDFEcj7-FZCHa-24" value="n" style="text;html=1;strokeColor=none;fillColor=none;align=center;verticalAlign=middle;whiteSpace=wrap;rounded=0;fontSize=16;" parent="1" vertex="1">
          <mxGeometry x="1370" y="1171" width="60" height="30" as="geometry" />
        </mxCell>
        <mxCell id="ArViRyuhNBFqtxa0QR-I-1" value="가입일" style="ellipse;whiteSpace=wrap;html=1;fontSize=16;" vertex="1" parent="1">
          <mxGeometry x="2133.88" y="1433" width="110" height="50" as="geometry" />
        </mxCell>
        <mxCell id="ArViRyuhNBFqtxa0QR-I-2" value="" style="endArrow=classic;html=1;rounded=0;entryX=0;entryY=0.5;entryDx=0;entryDy=0;fontSize=16;exitX=0.696;exitY=0.983;exitDx=0;exitDy=0;exitPerimeter=0;" edge="1" parent="1" source="uqeAqKsrdyoIgIY8dId6-232" target="ArViRyuhNBFqtxa0QR-I-1">
          <mxGeometry width="50" height="50" relative="1" as="geometry">
            <mxPoint x="1850" y="1420" as="sourcePoint" />
            <mxPoint x="2138" y="1517" as="targetPoint" />
          </mxGeometry>
        </mxCell>
      </root>
    </mxGraphModel>
  </diagram>
</mxfile>
